<?xml version="1.0" encoding="UTF-8" standalone="no"?>
<!DOCTYPE svg PUBLIC "-//W3C//DTD SVG 1.1//EN"
 "http://www.w3.org/Graphics/SVG/1.1/DTD/svg11.dtd">
<!-- Generated by graphviz version 2.40.1 (20161225.0304)
 -->
<!-- Title: G Pages: 1 -->
<svg width="1810pt" height="295pt"
 viewBox="0.00 0.00 1810.00 294.50" xmlns="http://www.w3.org/2000/svg" xmlns:xlink="http://www.w3.org/1999/xlink">
<g id="graph0" class="graph" transform="scale(1 1) rotate(0) translate(4 290.5)">
<title>G</title>
<polygon fill="#ffffff" stroke="transparent" points="-4,4 -4,-290.5 1806,-290.5 1806,4 -4,4"/>
<!-- TITLE -->
<g id="node1" class="node">
<title>TITLE</title>
<polygon fill="none" stroke="#ff0000" points="0,-.5 0,-36.5 112,-36.5 112,-.5 0,-.5"/>
<text text-anchor="middle" x="56" y="-14.8" font-family="Times,serif" font-size="14.00" fill="#000000">DUMP of the list</text>
</g>
<!-- free -->
<g id="node2" class="node">
<title>free</title>
<path fill="none" stroke="#000000" d="M34.5,-55.5C34.5,-55.5 77.5,-55.5 77.5,-55.5 83.5,-55.5 89.5,-61.5 89.5,-67.5 89.5,-67.5 89.5,-79.5 89.5,-79.5 89.5,-85.5 83.5,-91.5 77.5,-91.5 77.5,-91.5 34.5,-91.5 34.5,-91.5 28.5,-91.5 22.5,-85.5 22.5,-79.5 22.5,-79.5 22.5,-67.5 22.5,-67.5 22.5,-61.5 28.5,-55.5 34.5,-55.5"/>
<text text-anchor="middle" x="56" y="-69.8" font-family="Times,serif" font-size="14.00" fill="#000000">free = 20</text>
</g>
<!-- capacity -->
<g id="node3" class="node">
<title>capacity</title>
<path fill="none" stroke="#000000" d="M160,-55.5C160,-55.5 227,-55.5 227,-55.5 233,-55.5 239,-61.5 239,-67.5 239,-67.5 239,-79.5 239,-79.5 239,-85.5 233,-91.5 227,-91.5 227,-91.5 160,-91.5 160,-91.5 154,-91.5 148,-85.5 148,-79.5 148,-79.5 148,-67.5 148,-67.5 148,-61.5 154,-55.5 160,-55.5"/>
<text text-anchor="middle" x="193.5" y="-69.8" font-family="Times,serif" font-size="14.00" fill="#000000">capacity = 32</text>
</g>
<!-- free&#45;&gt;capacity -->
<g id="edge38" class="edge">
<title>free&#45;&gt;capacity</title>
<path fill="none" stroke="transparent" d="M89.6363,-73.5C103.9845,-73.5 121.122,-73.5 137.2997,-73.5"/>
<polygon fill="transparent" stroke="transparent" points="137.7533,-77.0001 147.7533,-73.5 137.7533,-70.0001 137.7533,-77.0001"/>
</g>
<!-- size -->
<g id="node6" class="node">
<title>size</title>
<path fill="none" stroke="#000000" d="M287,-55.5C287,-55.5 330,-55.5 330,-55.5 336,-55.5 342,-61.5 342,-67.5 342,-67.5 342,-79.5 342,-79.5 342,-85.5 336,-91.5 330,-91.5 330,-91.5 287,-91.5 287,-91.5 281,-91.5 275,-85.5 275,-79.5 275,-79.5 275,-67.5 275,-67.5 275,-61.5 281,-55.5 287,-55.5"/>
<text text-anchor="middle" x="308.5" y="-69.8" font-family="Times,serif" font-size="14.00" fill="#000000">size = 19</text>
</g>
<!-- capacity&#45;&gt;size -->
<g id="edge39" class="edge">
<title>capacity&#45;&gt;size</title>
<path fill="none" stroke="transparent" d="M239.2815,-73.5C247.6493,-73.5 256.3629,-73.5 264.6721,-73.5"/>
<polygon fill="transparent" stroke="transparent" points="264.9245,-77.0001 274.9245,-73.5 264.9244,-70.0001 264.9245,-77.0001"/>
</g>
<!-- head -->
<g id="node4" class="node">
<title>head</title>
<path fill="none" stroke="#000000" d="M390,-55.5C390,-55.5 431,-55.5 431,-55.5 437,-55.5 443,-61.5 443,-67.5 443,-67.5 443,-79.5 443,-79.5 443,-85.5 437,-91.5 431,-91.5 431,-91.5 390,-91.5 390,-91.5 384,-91.5 378,-85.5 378,-79.5 378,-79.5 378,-67.5 378,-67.5 378,-61.5 384,-55.5 390,-55.5"/>
<text text-anchor="middle" x="410.5" y="-69.8" font-family="Times,serif" font-size="14.00" fill="#000000">head = 1</text>
</g>
<!-- tail -->
<g id="node5" class="node">
<title>tail</title>
<path fill="none" stroke="#000000" d="M491,-55.5C491,-55.5 530,-55.5 530,-55.5 536,-55.5 542,-61.5 542,-67.5 542,-67.5 542,-79.5 542,-79.5 542,-85.5 536,-91.5 530,-91.5 530,-91.5 491,-91.5 491,-91.5 485,-91.5 479,-85.5 479,-79.5 479,-79.5 479,-67.5 479,-67.5 479,-61.5 485,-55.5 491,-55.5"/>
<text text-anchor="middle" x="510.5" y="-69.8" font-family="Times,serif" font-size="14.00" fill="#000000">tail = 19</text>
</g>
<!-- head&#45;&gt;tail -->
<g id="edge41" class="edge">
<title>head&#45;&gt;tail</title>
<path fill="none" stroke="transparent" d="M443.2437,-73.5C451.3429,-73.5 460.1307,-73.5 468.5999,-73.5"/>
<polygon fill="transparent" stroke="transparent" points="468.7048,-77.0001 478.7048,-73.5 468.7048,-70.0001 468.7048,-77.0001"/>
</g>
<!-- size&#45;&gt;head -->
<g id="edge40" class="edge">
<title>size&#45;&gt;head</title>
<path fill="none" stroke="transparent" d="M342.1813,-73.5C350.3496,-73.5 359.1906,-73.5 367.7168,-73.5"/>
<polygon fill="transparent" stroke="transparent" points="367.8946,-77.0001 377.8946,-73.5 367.8945,-70.0001 367.8946,-77.0001"/>
</g>
<!-- Node1 -->
<g id="node7" class="node">
<title>Node1</title>
<polygon fill="#98fb98" stroke="#000000" points="29,-149 29,-286 83,-286 83,-149 29,-149"/>
<text text-anchor="middle" x="56" y="-270.8" font-family="Times,serif" font-size="14.00" fill="#000000">1</text>
<polyline fill="none" stroke="#000000" points="29,-263 83,-263 "/>
<text text-anchor="middle" x="56" y="-247.8" font-family="Times,serif" font-size="14.00" fill="#000000">data</text>
<text text-anchor="middle" x="56" y="-232.8" font-family="Times,serif" font-size="14.00" fill="#000000">1</text>
<polyline fill="none" stroke="#000000" points="29,-225 83,-225 "/>
<text text-anchor="middle" x="56" y="-209.8" font-family="Times,serif" font-size="14.00" fill="#000000">next</text>
<text text-anchor="middle" x="56" y="-194.8" font-family="Times,serif" font-size="14.00" fill="#000000">2</text>
<polyline fill="none" stroke="#000000" points="29,-187 83,-187 "/>
<text text-anchor="middle" x="56" y="-171.8" font-family="Times,serif" font-size="14.00" fill="#000000">prev</text>
<text text-anchor="middle" x="56" y="-156.8" font-family="Times,serif" font-size="14.00" fill="#000000">0</text>
</g>
<!-- Node2 -->
<g id="node8" class="node">
<title>Node2</title>
<polygon fill="#98fb98" stroke="#000000" points="166.5,-149 166.5,-286 220.5,-286 220.5,-149 166.5,-149"/>
<text text-anchor="middle" x="193.5" y="-270.8" font-family="Times,serif" font-size="14.00" fill="#000000">2</text>
<polyline fill="none" stroke="#000000" points="166.5,-263 220.5,-263 "/>
<text text-anchor="middle" x="193.5" y="-247.8" font-family="Times,serif" font-size="14.00" fill="#000000">data</text>
<text text-anchor="middle" x="193.5" y="-232.8" font-family="Times,serif" font-size="14.00" fill="#000000">2</text>
<polyline fill="none" stroke="#000000" points="166.5,-225 220.5,-225 "/>
<text text-anchor="middle" x="193.5" y="-209.8" font-family="Times,serif" font-size="14.00" fill="#000000">next</text>
<text text-anchor="middle" x="193.5" y="-194.8" font-family="Times,serif" font-size="14.00" fill="#000000">3</text>
<polyline fill="none" stroke="#000000" points="166.5,-187 220.5,-187 "/>
<text text-anchor="middle" x="193.5" y="-171.8" font-family="Times,serif" font-size="14.00" fill="#000000">prev</text>
<text text-anchor="middle" x="193.5" y="-156.8" font-family="Times,serif" font-size="14.00" fill="#000000">1</text>
</g>
<!-- Node1&#45;&gt;Node2 -->
<g id="edge1" class="edge">
<title>Node1&#45;&gt;Node2</title>
<path fill="none" stroke="transparent" d="M83.1656,-217.5C104.0697,-217.5 133.1899,-217.5 156.2653,-217.5"/>
<polygon fill="transparent" stroke="transparent" points="156.3909,-221.0001 166.3909,-217.5 156.3908,-214.0001 156.3909,-221.0001"/>
</g>
<!-- Node1&#45;&gt;Node2 -->
<g id="edge19" class="edge">
<title>Node1:f11&#45;&gt;Node2:f02</title>
<path fill="none" stroke="#ff0000" d="M83,-205.5C127.3812,-205.5 119.9834,-264.1399 156.2742,-273.3024"/>
<polygon fill="#ff0000" stroke="#ff0000" points="156.1607,-276.8129 166.5,-274.5 156.975,-269.8605 156.1607,-276.8129"/>
</g>
<!-- Node3 -->
<g id="node9" class="node">
<title>Node3</title>
<polygon fill="#98fb98" stroke="#000000" points="281.5,-149 281.5,-286 335.5,-286 335.5,-149 281.5,-149"/>
<text text-anchor="middle" x="308.5" y="-270.8" font-family="Times,serif" font-size="14.00" fill="#000000">3</text>
<polyline fill="none" stroke="#000000" points="281.5,-263 335.5,-263 "/>
<text text-anchor="middle" x="308.5" y="-247.8" font-family="Times,serif" font-size="14.00" fill="#000000">data</text>
<text text-anchor="middle" x="308.5" y="-232.8" font-family="Times,serif" font-size="14.00" fill="#000000">3</text>
<polyline fill="none" stroke="#000000" points="281.5,-225 335.5,-225 "/>
<text text-anchor="middle" x="308.5" y="-209.8" font-family="Times,serif" font-size="14.00" fill="#000000">next</text>
<text text-anchor="middle" x="308.5" y="-194.8" font-family="Times,serif" font-size="14.00" fill="#000000">4</text>
<polyline fill="none" stroke="#000000" points="281.5,-187 335.5,-187 "/>
<text text-anchor="middle" x="308.5" y="-171.8" font-family="Times,serif" font-size="14.00" fill="#000000">prev</text>
<text text-anchor="middle" x="308.5" y="-156.8" font-family="Times,serif" font-size="14.00" fill="#000000">2</text>
</g>
<!-- Node2&#45;&gt;Node3 -->
<g id="edge2" class="edge">
<title>Node2&#45;&gt;Node3</title>
<path fill="none" stroke="transparent" d="M220.7534,-217.5C235.7913,-217.5 254.6877,-217.5 271.0897,-217.5"/>
<polygon fill="transparent" stroke="transparent" points="271.4423,-221.0001 281.4422,-217.5 271.4422,-214.0001 271.4423,-221.0001"/>
</g>
<!-- Node2&#45;&gt;Node3 -->
<g id="edge20" class="edge">
<title>Node2:f12&#45;&gt;Node3:f03</title>
<path fill="none" stroke="#ff0000" d="M220.5,-205.5C257.5949,-205.5 243.9366,-262.1689 271.5154,-272.7944"/>
<polygon fill="#ff0000" stroke="#ff0000" points="271.0534,-276.2661 281.5,-274.5 272.2322,-269.366 271.0534,-276.2661"/>
</g>
<!-- Node4 -->
<g id="node10" class="node">
<title>Node4</title>
<polygon fill="#98fb98" stroke="#000000" points="383.5,-149 383.5,-286 437.5,-286 437.5,-149 383.5,-149"/>
<text text-anchor="middle" x="410.5" y="-270.8" font-family="Times,serif" font-size="14.00" fill="#000000">4</text>
<polyline fill="none" stroke="#000000" points="383.5,-263 437.5,-263 "/>
<text text-anchor="middle" x="410.5" y="-247.8" font-family="Times,serif" font-size="14.00" fill="#000000">data</text>
<text text-anchor="middle" x="410.5" y="-232.8" font-family="Times,serif" font-size="14.00" fill="#000000">4</text>
<polyline fill="none" stroke="#000000" points="383.5,-225 437.5,-225 "/>
<text text-anchor="middle" x="410.5" y="-209.8" font-family="Times,serif" font-size="14.00" fill="#000000">next</text>
<text text-anchor="middle" x="410.5" y="-194.8" font-family="Times,serif" font-size="14.00" fill="#000000">5</text>
<polyline fill="none" stroke="#000000" points="383.5,-187 437.5,-187 "/>
<text text-anchor="middle" x="410.5" y="-171.8" font-family="Times,serif" font-size="14.00" fill="#000000">prev</text>
<text text-anchor="middle" x="410.5" y="-156.8" font-family="Times,serif" font-size="14.00" fill="#000000">3</text>
</g>
<!-- Node3&#45;&gt;Node4 -->
<g id="edge3" class="edge">
<title>Node3&#45;&gt;Node4</title>
<path fill="none" stroke="transparent" d="M335.5663,-217.5C347.0936,-217.5 360.7305,-217.5 373.1902,-217.5"/>
<polygon fill="transparent" stroke="transparent" points="373.3072,-221.0001 383.3072,-217.5 373.3071,-214.0001 373.3072,-221.0001"/>
</g>
<!-- Node3&#45;&gt;Node4 -->
<g id="edge21" class="edge">
<title>Node3:f13&#45;&gt;Node4:f04</title>
<path fill="none" stroke="#ff0000" d="M335.5,-205.5C368.9171,-205.5 351.0652,-260.7128 373.6678,-272.3593"/>
<polygon fill="#ff0000" stroke="#ff0000" points="372.9843,-275.7924 383.5,-274.5 374.4735,-268.9527 372.9843,-275.7924"/>
</g>
<!-- Node5 -->
<g id="node11" class="node">
<title>Node5</title>
<polygon fill="#98fb98" stroke="#000000" points="483.5,-149 483.5,-286 537.5,-286 537.5,-149 483.5,-149"/>
<text text-anchor="middle" x="510.5" y="-270.8" font-family="Times,serif" font-size="14.00" fill="#000000">5</text>
<polyline fill="none" stroke="#000000" points="483.5,-263 537.5,-263 "/>
<text text-anchor="middle" x="510.5" y="-247.8" font-family="Times,serif" font-size="14.00" fill="#000000">data</text>
<text text-anchor="middle" x="510.5" y="-232.8" font-family="Times,serif" font-size="14.00" fill="#000000">5</text>
<polyline fill="none" stroke="#000000" points="483.5,-225 537.5,-225 "/>
<text text-anchor="middle" x="510.5" y="-209.8" font-family="Times,serif" font-size="14.00" fill="#000000">next</text>
<text text-anchor="middle" x="510.5" y="-194.8" font-family="Times,serif" font-size="14.00" fill="#000000">6</text>
<polyline fill="none" stroke="#000000" points="483.5,-187 537.5,-187 "/>
<text text-anchor="middle" x="510.5" y="-171.8" font-family="Times,serif" font-size="14.00" fill="#000000">prev</text>
<text text-anchor="middle" x="510.5" y="-156.8" font-family="Times,serif" font-size="14.00" fill="#000000">4</text>
</g>
<!-- Node4&#45;&gt;Node5 -->
<g id="edge4" class="edge">
<title>Node4&#45;&gt;Node5</title>
<path fill="none" stroke="transparent" d="M437.5614,-217.5C448.5669,-217.5 461.4653,-217.5 473.33,-217.5"/>
<polygon fill="transparent" stroke="transparent" points="473.417,-221.0001 483.4169,-217.5 473.4169,-214.0001 473.417,-221.0001"/>
</g>
<!-- Node4&#45;&gt;Node5 -->
<g id="edge22" class="edge">
<title>Node4:f14&#45;&gt;Node5:f05</title>
<path fill="none" stroke="#ff0000" d="M437.5,-205.5C470.3255,-205.5 451.9331,-260.2317 473.5547,-272.2042"/>
<polygon fill="#ff0000" stroke="#ff0000" points="472.969,-275.661 483.5,-274.5 474.5435,-268.8404 472.969,-275.661"/>
</g>
<!-- Node6 -->
<g id="node12" class="node">
<title>Node6</title>
<polygon fill="#98fb98" stroke="#000000" points="578,-149 578,-286 632,-286 632,-149 578,-149"/>
<text text-anchor="middle" x="605" y="-270.8" font-family="Times,serif" font-size="14.00" fill="#000000">6</text>
<polyline fill="none" stroke="#000000" points="578,-263 632,-263 "/>
<text text-anchor="middle" x="605" y="-247.8" font-family="Times,serif" font-size="14.00" fill="#000000">data</text>
<text text-anchor="middle" x="605" y="-232.8" font-family="Times,serif" font-size="14.00" fill="#000000">6</text>
<polyline fill="none" stroke="#000000" points="578,-225 632,-225 "/>
<text text-anchor="middle" x="605" y="-209.8" font-family="Times,serif" font-size="14.00" fill="#000000">next</text>
<text text-anchor="middle" x="605" y="-194.8" font-family="Times,serif" font-size="14.00" fill="#000000">7</text>
<polyline fill="none" stroke="#000000" points="578,-187 632,-187 "/>
<text text-anchor="middle" x="605" y="-171.8" font-family="Times,serif" font-size="14.00" fill="#000000">prev</text>
<text text-anchor="middle" x="605" y="-156.8" font-family="Times,serif" font-size="14.00" fill="#000000">5</text>
</g>
<!-- Node5&#45;&gt;Node6 -->
<g id="edge5" class="edge">
<title>Node5&#45;&gt;Node6</title>
<path fill="none" stroke="transparent" d="M537.5799,-217.5C546.971,-217.5 557.6709,-217.5 567.737,-217.5"/>
<polygon fill="transparent" stroke="transparent" points="567.9162,-221.0001 577.9161,-217.5 567.9161,-214.0001 567.9162,-221.0001"/>
</g>
<!-- Node5&#45;&gt;Node6 -->
<g id="edge23" class="edge">
<title>Node5:f15&#45;&gt;Node6:f06</title>
<path fill="none" stroke="#ff0000" d="M537.5,-205.5C569.0309,-205.5 548.5286,-259.7526 568.2708,-272.0443"/>
<polygon fill="#ff0000" stroke="#ff0000" points="567.4475,-275.4462 578,-274.5 569.1607,-268.659 567.4475,-275.4462"/>
</g>
<!-- Node7 -->
<g id="node13" class="node">
<title>Node7</title>
<polygon fill="#98fb98" stroke="#000000" points="668,-149 668,-286 722,-286 722,-149 668,-149"/>
<text text-anchor="middle" x="695" y="-270.8" font-family="Times,serif" font-size="14.00" fill="#000000">7</text>
<polyline fill="none" stroke="#000000" points="668,-263 722,-263 "/>
<text text-anchor="middle" x="695" y="-247.8" font-family="Times,serif" font-size="14.00" fill="#000000">data</text>
<text text-anchor="middle" x="695" y="-232.8" font-family="Times,serif" font-size="14.00" fill="#000000">7</text>
<polyline fill="none" stroke="#000000" points="668,-225 722,-225 "/>
<text text-anchor="middle" x="695" y="-209.8" font-family="Times,serif" font-size="14.00" fill="#000000">next</text>
<text text-anchor="middle" x="695" y="-194.8" font-family="Times,serif" font-size="14.00" fill="#000000">8</text>
<polyline fill="none" stroke="#000000" points="668,-187 722,-187 "/>
<text text-anchor="middle" x="695" y="-171.8" font-family="Times,serif" font-size="14.00" fill="#000000">prev</text>
<text text-anchor="middle" x="695" y="-156.8" font-family="Times,serif" font-size="14.00" fill="#000000">6</text>
</g>
<!-- Node6&#45;&gt;Node7 -->
<g id="edge6" class="edge">
<title>Node6&#45;&gt;Node7</title>
<path fill="none" stroke="transparent" d="M632.003,-217.5C640.0277,-217.5 648.9665,-217.5 657.5309,-217.5"/>
<polygon fill="transparent" stroke="transparent" points="657.7051,-221.0001 667.705,-217.5 657.705,-214.0001 657.7051,-221.0001"/>
</g>
<!-- Node6&#45;&gt;Node7 -->
<g id="edge24" class="edge">
<title>Node6:f16&#45;&gt;Node7:f07</title>
<path fill="none" stroke="#ff0000" d="M632,-205.5C662.266,-205.5 640.6463,-258.3281 657.9408,-271.5352"/>
<polygon fill="#ff0000" stroke="#ff0000" points="657.4184,-275.03 668,-274.5 659.3975,-268.3156 657.4184,-275.03"/>
</g>
<!-- Node8 -->
<g id="node14" class="node">
<title>Node8</title>
<polygon fill="#98fb98" stroke="#000000" points="758,-149 758,-286 812,-286 812,-149 758,-149"/>
<text text-anchor="middle" x="785" y="-270.8" font-family="Times,serif" font-size="14.00" fill="#000000">8</text>
<polyline fill="none" stroke="#000000" points="758,-263 812,-263 "/>
<text text-anchor="middle" x="785" y="-247.8" font-family="Times,serif" font-size="14.00" fill="#000000">data</text>
<text text-anchor="middle" x="785" y="-232.8" font-family="Times,serif" font-size="14.00" fill="#000000">8</text>
<polyline fill="none" stroke="#000000" points="758,-225 812,-225 "/>
<text text-anchor="middle" x="785" y="-209.8" font-family="Times,serif" font-size="14.00" fill="#000000">next</text>
<text text-anchor="middle" x="785" y="-194.8" font-family="Times,serif" font-size="14.00" fill="#000000">9</text>
<polyline fill="none" stroke="#000000" points="758,-187 812,-187 "/>
<text text-anchor="middle" x="785" y="-171.8" font-family="Times,serif" font-size="14.00" fill="#000000">prev</text>
<text text-anchor="middle" x="785" y="-156.8" font-family="Times,serif" font-size="14.00" fill="#000000">7</text>
</g>
<!-- Node7&#45;&gt;Node8 -->
<g id="edge7" class="edge">
<title>Node7&#45;&gt;Node8</title>
<path fill="none" stroke="transparent" d="M722.003,-217.5C730.0277,-217.5 738.9665,-217.5 747.5309,-217.5"/>
<polygon fill="transparent" stroke="transparent" points="747.7051,-221.0001 757.705,-217.5 747.705,-214.0001 747.7051,-221.0001"/>
</g>
<!-- Node7&#45;&gt;Node8 -->
<g id="edge25" class="edge">
<title>Node7:f17&#45;&gt;Node8:f08</title>
<path fill="none" stroke="#ff0000" d="M722,-205.5C752.266,-205.5 730.6463,-258.3281 747.9408,-271.5352"/>
<polygon fill="#ff0000" stroke="#ff0000" points="747.4184,-275.03 758,-274.5 749.3975,-268.3156 747.4184,-275.03"/>
</g>
<!-- Node9 -->
<g id="node15" class="node">
<title>Node9</title>
<polygon fill="#98fb98" stroke="#000000" points="848,-149 848,-286 902,-286 902,-149 848,-149"/>
<text text-anchor="middle" x="875" y="-270.8" font-family="Times,serif" font-size="14.00" fill="#000000">9</text>
<polyline fill="none" stroke="#000000" points="848,-263 902,-263 "/>
<text text-anchor="middle" x="875" y="-247.8" font-family="Times,serif" font-size="14.00" fill="#000000">data</text>
<text text-anchor="middle" x="875" y="-232.8" font-family="Times,serif" font-size="14.00" fill="#000000">9</text>
<polyline fill="none" stroke="#000000" points="848,-225 902,-225 "/>
<text text-anchor="middle" x="875" y="-209.8" font-family="Times,serif" font-size="14.00" fill="#000000">next</text>
<text text-anchor="middle" x="875" y="-194.8" font-family="Times,serif" font-size="14.00" fill="#000000">10</text>
<polyline fill="none" stroke="#000000" points="848,-187 902,-187 "/>
<text text-anchor="middle" x="875" y="-171.8" font-family="Times,serif" font-size="14.00" fill="#000000">prev</text>
<text text-anchor="middle" x="875" y="-156.8" font-family="Times,serif" font-size="14.00" fill="#000000">8</text>
</g>
<!-- Node8&#45;&gt;Node9 -->
<g id="edge8" class="edge">
<title>Node8&#45;&gt;Node9</title>
<path fill="none" stroke="transparent" d="M812.003,-217.5C820.0277,-217.5 828.9665,-217.5 837.5309,-217.5"/>
<polygon fill="transparent" stroke="transparent" points="837.7051,-221.0001 847.705,-217.5 837.705,-214.0001 837.7051,-221.0001"/>
</g>
<!-- Node8&#45;&gt;Node9 -->
<g id="edge26" class="edge">
<title>Node8:f18&#45;&gt;Node9:f09</title>
<path fill="none" stroke="#ff0000" d="M812,-205.5C842.266,-205.5 820.6463,-258.3281 837.9408,-271.5352"/>
<polygon fill="#ff0000" stroke="#ff0000" points="837.4184,-275.03 848,-274.5 839.3975,-268.3156 837.4184,-275.03"/>
</g>
<!-- Node10 -->
<g id="node16" class="node">
<title>Node10</title>
<polygon fill="#98fb98" stroke="#000000" points="938,-149 938,-286 992,-286 992,-149 938,-149"/>
<text text-anchor="middle" x="965" y="-270.8" font-family="Times,serif" font-size="14.00" fill="#000000">10</text>
<polyline fill="none" stroke="#000000" points="938,-263 992,-263 "/>
<text text-anchor="middle" x="965" y="-247.8" font-family="Times,serif" font-size="14.00" fill="#000000">data</text>
<text text-anchor="middle" x="965" y="-232.8" font-family="Times,serif" font-size="14.00" fill="#000000">10</text>
<polyline fill="none" stroke="#000000" points="938,-225 992,-225 "/>
<text text-anchor="middle" x="965" y="-209.8" font-family="Times,serif" font-size="14.00" fill="#000000">next</text>
<text text-anchor="middle" x="965" y="-194.8" font-family="Times,serif" font-size="14.00" fill="#000000">11</text>
<polyline fill="none" stroke="#000000" points="938,-187 992,-187 "/>
<text text-anchor="middle" x="965" y="-171.8" font-family="Times,serif" font-size="14.00" fill="#000000">prev</text>
<text text-anchor="middle" x="965" y="-156.8" font-family="Times,serif" font-size="14.00" fill="#000000">9</text>
</g>
<!-- Node9&#45;&gt;Node10 -->
<g id="edge9" class="edge">
<title>Node9&#45;&gt;Node10</title>
<path fill="none" stroke="transparent" d="M902.003,-217.5C910.0277,-217.5 918.9665,-217.5 927.5309,-217.5"/>
<polygon fill="transparent" stroke="transparent" points="927.7051,-221.0001 937.705,-217.5 927.705,-214.0001 927.7051,-221.0001"/>
</g>
<!-- Node9&#45;&gt;Node10 -->
<g id="edge27" class="edge">
<title>Node9:f19&#45;&gt;Node10:f010</title>
<path fill="none" stroke="#ff0000" d="M902,-205.5C932.266,-205.5 910.6463,-258.3281 927.9408,-271.5352"/>
<polygon fill="#ff0000" stroke="#ff0000" points="927.4184,-275.03 938,-274.5 929.3975,-268.3156 927.4184,-275.03"/>
</g>
<!-- Node11 -->
<g id="node17" class="node">
<title>Node11</title>
<polygon fill="#98fb98" stroke="#000000" points="1028,-149 1028,-286 1082,-286 1082,-149 1028,-149"/>
<text text-anchor="middle" x="1055" y="-270.8" font-family="Times,serif" font-size="14.00" fill="#000000">11</text>
<polyline fill="none" stroke="#000000" points="1028,-263 1082,-263 "/>
<text text-anchor="middle" x="1055" y="-247.8" font-family="Times,serif" font-size="14.00" fill="#000000">data</text>
<text text-anchor="middle" x="1055" y="-232.8" font-family="Times,serif" font-size="14.00" fill="#000000">11</text>
<polyline fill="none" stroke="#000000" points="1028,-225 1082,-225 "/>
<text text-anchor="middle" x="1055" y="-209.8" font-family="Times,serif" font-size="14.00" fill="#000000">next</text>
<text text-anchor="middle" x="1055" y="-194.8" font-family="Times,serif" font-size="14.00" fill="#000000">12</text>
<polyline fill="none" stroke="#000000" points="1028,-187 1082,-187 "/>
<text text-anchor="middle" x="1055" y="-171.8" font-family="Times,serif" font-size="14.00" fill="#000000">prev</text>
<text text-anchor="middle" x="1055" y="-156.8" font-family="Times,serif" font-size="14.00" fill="#000000">10</text>
</g>
<!-- Node10&#45;&gt;Node11 -->
<g id="edge10" class="edge">
<title>Node10&#45;&gt;Node11</title>
<path fill="none" stroke="transparent" d="M992.003,-217.5C1000.0277,-217.5 1008.9665,-217.5 1017.5309,-217.5"/>
<polygon fill="transparent" stroke="transparent" points="1017.7051,-221.0001 1027.705,-217.5 1017.705,-214.0001 1017.7051,-221.0001"/>
</g>
<!-- Node10&#45;&gt;Node11 -->
<g id="edge28" class="edge">
<title>Node10:f110&#45;&gt;Node11:f011</title>
<path fill="none" stroke="#ff0000" d="M992,-205.5C1022.266,-205.5 1000.6463,-258.3281 1017.9408,-271.5352"/>
<polygon fill="#ff0000" stroke="#ff0000" points="1017.4184,-275.03 1028,-274.5 1019.3975,-268.3156 1017.4184,-275.03"/>
</g>
<!-- Node12 -->
<g id="node18" class="node">
<title>Node12</title>
<polygon fill="#98fb98" stroke="#000000" points="1118,-149 1118,-286 1172,-286 1172,-149 1118,-149"/>
<text text-anchor="middle" x="1145" y="-270.8" font-family="Times,serif" font-size="14.00" fill="#000000">12</text>
<polyline fill="none" stroke="#000000" points="1118,-263 1172,-263 "/>
<text text-anchor="middle" x="1145" y="-247.8" font-family="Times,serif" font-size="14.00" fill="#000000">data</text>
<text text-anchor="middle" x="1145" y="-232.8" font-family="Times,serif" font-size="14.00" fill="#000000">12</text>
<polyline fill="none" stroke="#000000" points="1118,-225 1172,-225 "/>
<text text-anchor="middle" x="1145" y="-209.8" font-family="Times,serif" font-size="14.00" fill="#000000">next</text>
<text text-anchor="middle" x="1145" y="-194.8" font-family="Times,serif" font-size="14.00" fill="#000000">13</text>
<polyline fill="none" stroke="#000000" points="1118,-187 1172,-187 "/>
<text text-anchor="middle" x="1145" y="-171.8" font-family="Times,serif" font-size="14.00" fill="#000000">prev</text>
<text text-anchor="middle" x="1145" y="-156.8" font-family="Times,serif" font-size="14.00" fill="#000000">11</text>
</g>
<!-- Node11&#45;&gt;Node12 -->
<g id="edge11" class="edge">
<title>Node11&#45;&gt;Node12</title>
<path fill="none" stroke="transparent" d="M1082.003,-217.5C1090.0277,-217.5 1098.9665,-217.5 1107.5309,-217.5"/>
<polygon fill="transparent" stroke="transparent" points="1107.7051,-221.0001 1117.705,-217.5 1107.705,-214.0001 1107.7051,-221.0001"/>
</g>
<!-- Node11&#45;&gt;Node12 -->
<g id="edge29" class="edge">
<title>Node11:f111&#45;&gt;Node12:f012</title>
<path fill="none" stroke="#ff0000" d="M1082,-205.5C1112.266,-205.5 1090.6463,-258.3281 1107.9408,-271.5352"/>
<polygon fill="#ff0000" stroke="#ff0000" points="1107.4184,-275.03 1118,-274.5 1109.3975,-268.3156 1107.4184,-275.03"/>
</g>
<!-- Node13 -->
<g id="node19" class="node">
<title>Node13</title>
<polygon fill="#98fb98" stroke="#000000" points="1208,-149 1208,-286 1262,-286 1262,-149 1208,-149"/>
<text text-anchor="middle" x="1235" y="-270.8" font-family="Times,serif" font-size="14.00" fill="#000000">13</text>
<polyline fill="none" stroke="#000000" points="1208,-263 1262,-263 "/>
<text text-anchor="middle" x="1235" y="-247.8" font-family="Times,serif" font-size="14.00" fill="#000000">data</text>
<text text-anchor="middle" x="1235" y="-232.8" font-family="Times,serif" font-size="14.00" fill="#000000">13</text>
<polyline fill="none" stroke="#000000" points="1208,-225 1262,-225 "/>
<text text-anchor="middle" x="1235" y="-209.8" font-family="Times,serif" font-size="14.00" fill="#000000">next</text>
<text text-anchor="middle" x="1235" y="-194.8" font-family="Times,serif" font-size="14.00" fill="#000000">14</text>
<polyline fill="none" stroke="#000000" points="1208,-187 1262,-187 "/>
<text text-anchor="middle" x="1235" y="-171.8" font-family="Times,serif" font-size="14.00" fill="#000000">prev</text>
<text text-anchor="middle" x="1235" y="-156.8" font-family="Times,serif" font-size="14.00" fill="#000000">12</text>
</g>
<!-- Node12&#45;&gt;Node13 -->
<g id="edge12" class="edge">
<title>Node12&#45;&gt;Node13</title>
<path fill="none" stroke="transparent" d="M1172.003,-217.5C1180.0277,-217.5 1188.9665,-217.5 1197.5309,-217.5"/>
<polygon fill="transparent" stroke="transparent" points="1197.7051,-221.0001 1207.705,-217.5 1197.705,-214.0001 1197.7051,-221.0001"/>
</g>
<!-- Node12&#45;&gt;Node13 -->
<g id="edge30" class="edge">
<title>Node12:f112&#45;&gt;Node13:f013</title>
<path fill="none" stroke="#ff0000" d="M1172,-205.5C1202.266,-205.5 1180.6463,-258.3281 1197.9408,-271.5352"/>
<polygon fill="#ff0000" stroke="#ff0000" points="1197.4184,-275.03 1208,-274.5 1199.3975,-268.3156 1197.4184,-275.03"/>
</g>
<!-- Node14 -->
<g id="node20" class="node">
<title>Node14</title>
<polygon fill="#98fb98" stroke="#000000" points="1298,-149 1298,-286 1352,-286 1352,-149 1298,-149"/>
<text text-anchor="middle" x="1325" y="-270.8" font-family="Times,serif" font-size="14.00" fill="#000000">14</text>
<polyline fill="none" stroke="#000000" points="1298,-263 1352,-263 "/>
<text text-anchor="middle" x="1325" y="-247.8" font-family="Times,serif" font-size="14.00" fill="#000000">data</text>
<text text-anchor="middle" x="1325" y="-232.8" font-family="Times,serif" font-size="14.00" fill="#000000">14</text>
<polyline fill="none" stroke="#000000" points="1298,-225 1352,-225 "/>
<text text-anchor="middle" x="1325" y="-209.8" font-family="Times,serif" font-size="14.00" fill="#000000">next</text>
<text text-anchor="middle" x="1325" y="-194.8" font-family="Times,serif" font-size="14.00" fill="#000000">15</text>
<polyline fill="none" stroke="#000000" points="1298,-187 1352,-187 "/>
<text text-anchor="middle" x="1325" y="-171.8" font-family="Times,serif" font-size="14.00" fill="#000000">prev</text>
<text text-anchor="middle" x="1325" y="-156.8" font-family="Times,serif" font-size="14.00" fill="#000000">13</text>
</g>
<!-- Node13&#45;&gt;Node14 -->
<g id="edge13" class="edge">
<title>Node13&#45;&gt;Node14</title>
<path fill="none" stroke="transparent" d="M1262.003,-217.5C1270.0277,-217.5 1278.9665,-217.5 1287.5309,-217.5"/>
<polygon fill="transparent" stroke="transparent" points="1287.7051,-221.0001 1297.705,-217.5 1287.705,-214.0001 1287.7051,-221.0001"/>
</g>
<!-- Node13&#45;&gt;Node14 -->
<g id="edge31" class="edge">
<title>Node13:f113&#45;&gt;Node14:f014</title>
<path fill="none" stroke="#ff0000" d="M1262,-205.5C1292.266,-205.5 1270.6463,-258.3281 1287.9408,-271.5352"/>
<polygon fill="#ff0000" stroke="#ff0000" points="1287.4184,-275.03 1298,-274.5 1289.3975,-268.3156 1287.4184,-275.03"/>
</g>
<!-- Node15 -->
<g id="node21" class="node">
<title>Node15</title>
<polygon fill="#98fb98" stroke="#000000" points="1388,-149 1388,-286 1442,-286 1442,-149 1388,-149"/>
<text text-anchor="middle" x="1415" y="-270.8" font-family="Times,serif" font-size="14.00" fill="#000000">15</text>
<polyline fill="none" stroke="#000000" points="1388,-263 1442,-263 "/>
<text text-anchor="middle" x="1415" y="-247.8" font-family="Times,serif" font-size="14.00" fill="#000000">data</text>
<text text-anchor="middle" x="1415" y="-232.8" font-family="Times,serif" font-size="14.00" fill="#000000">15</text>
<polyline fill="none" stroke="#000000" points="1388,-225 1442,-225 "/>
<text text-anchor="middle" x="1415" y="-209.8" font-family="Times,serif" font-size="14.00" fill="#000000">next</text>
<text text-anchor="middle" x="1415" y="-194.8" font-family="Times,serif" font-size="14.00" fill="#000000">16</text>
<polyline fill="none" stroke="#000000" points="1388,-187 1442,-187 "/>
<text text-anchor="middle" x="1415" y="-171.8" font-family="Times,serif" font-size="14.00" fill="#000000">prev</text>
<text text-anchor="middle" x="1415" y="-156.8" font-family="Times,serif" font-size="14.00" fill="#000000">14</text>
</g>
<!-- Node14&#45;&gt;Node15 -->
<g id="edge14" class="edge">
<title>Node14&#45;&gt;Node15</title>
<path fill="none" stroke="transparent" d="M1352.003,-217.5C1360.0277,-217.5 1368.9665,-217.5 1377.5309,-217.5"/>
<polygon fill="transparent" stroke="transparent" points="1377.7051,-221.0001 1387.705,-217.5 1377.705,-214.0001 1377.7051,-221.0001"/>
</g>
<!-- Node14&#45;&gt;Node15 -->
<g id="edge32" class="edge">
<title>Node14:f114&#45;&gt;Node15:f015</title>
<path fill="none" stroke="#ff0000" d="M1352,-205.5C1382.266,-205.5 1360.6463,-258.3281 1377.9408,-271.5352"/>
<polygon fill="#ff0000" stroke="#ff0000" points="1377.4184,-275.03 1388,-274.5 1379.3975,-268.3156 1377.4184,-275.03"/>
</g>
<!-- Node16 -->
<g id="node22" class="node">
<title>Node16</title>
<polygon fill="#98fb98" stroke="#000000" points="1478,-149 1478,-286 1532,-286 1532,-149 1478,-149"/>
<text text-anchor="middle" x="1505" y="-270.8" font-family="Times,serif" font-size="14.00" fill="#000000">16</text>
<polyline fill="none" stroke="#000000" points="1478,-263 1532,-263 "/>
<text text-anchor="middle" x="1505" y="-247.8" font-family="Times,serif" font-size="14.00" fill="#000000">data</text>
<text text-anchor="middle" x="1505" y="-232.8" font-family="Times,serif" font-size="14.00" fill="#000000">16</text>
<polyline fill="none" stroke="#000000" points="1478,-225 1532,-225 "/>
<text text-anchor="middle" x="1505" y="-209.8" font-family="Times,serif" font-size="14.00" fill="#000000">next</text>
<text text-anchor="middle" x="1505" y="-194.8" font-family="Times,serif" font-size="14.00" fill="#000000">17</text>
<polyline fill="none" stroke="#000000" points="1478,-187 1532,-187 "/>
<text text-anchor="middle" x="1505" y="-171.8" font-family="Times,serif" font-size="14.00" fill="#000000">prev</text>
<text text-anchor="middle" x="1505" y="-156.8" font-family="Times,serif" font-size="14.00" fill="#000000">15</text>
</g>
<!-- Node15&#45;&gt;Node16 -->
<g id="edge15" class="edge">
<title>Node15&#45;&gt;Node16</title>
<path fill="none" stroke="transparent" d="M1442.003,-217.5C1450.0277,-217.5 1458.9665,-217.5 1467.5309,-217.5"/>
<polygon fill="transparent" stroke="transparent" points="1467.7051,-221.0001 1477.705,-217.5 1467.705,-214.0001 1467.7051,-221.0001"/>
</g>
<!-- Node15&#45;&gt;Node16 -->
<g id="edge33" class="edge">
<title>Node15:f115&#45;&gt;Node16:f016</title>
<path fill="none" stroke="#ff0000" d="M1442,-205.5C1472.266,-205.5 1450.6463,-258.3281 1467.9408,-271.5352"/>
<polygon fill="#ff0000" stroke="#ff0000" points="1467.4184,-275.03 1478,-274.5 1469.3975,-268.3156 1467.4184,-275.03"/>
</g>
<!-- Node17 -->
<g id="node23" class="node">
<title>Node17</title>
<polygon fill="#98fb98" stroke="#000000" points="1568,-149 1568,-286 1622,-286 1622,-149 1568,-149"/>
<text text-anchor="middle" x="1595" y="-270.8" font-family="Times,serif" font-size="14.00" fill="#000000">17</text>
<polyline fill="none" stroke="#000000" points="1568,-263 1622,-263 "/>
<text text-anchor="middle" x="1595" y="-247.8" font-family="Times,serif" font-size="14.00" fill="#000000">data</text>
<text text-anchor="middle" x="1595" y="-232.8" font-family="Times,serif" font-size="14.00" fill="#000000">17</text>
<polyline fill="none" stroke="#000000" points="1568,-225 1622,-225 "/>
<text text-anchor="middle" x="1595" y="-209.8" font-family="Times,serif" font-size="14.00" fill="#000000">next</text>
<text text-anchor="middle" x="1595" y="-194.8" font-family="Times,serif" font-size="14.00" fill="#000000">18</text>
<polyline fill="none" stroke="#000000" points="1568,-187 1622,-187 "/>
<text text-anchor="middle" x="1595" y="-171.8" font-family="Times,serif" font-size="14.00" fill="#000000">prev</text>
<text text-anchor="middle" x="1595" y="-156.8" font-family="Times,serif" font-size="14.00" fill="#000000">16</text>
</g>
<!-- Node16&#45;&gt;Node17 -->
<g id="edge16" class="edge">
<title>Node16&#45;&gt;Node17</title>
<path fill="none" stroke="transparent" d="M1532.003,-217.5C1540.0277,-217.5 1548.9665,-217.5 1557.5309,-217.5"/>
<polygon fill="transparent" stroke="transparent" points="1557.7051,-221.0001 1567.705,-217.5 1557.705,-214.0001 1557.7051,-221.0001"/>
</g>
<!-- Node16&#45;&gt;Node17 -->
<g id="edge34" class="edge">
<title>Node16:f116&#45;&gt;Node17:f017</title>
<path fill="none" stroke="#ff0000" d="M1532,-205.5C1562.266,-205.5 1540.6463,-258.3281 1557.9408,-271.5352"/>
<polygon fill="#ff0000" stroke="#ff0000" points="1557.4184,-275.03 1568,-274.5 1559.3975,-268.3156 1557.4184,-275.03"/>
</g>
<!-- Node18 -->
<g id="node24" class="node">
<title>Node18</title>
<polygon fill="#98fb98" stroke="#000000" points="1658,-149 1658,-286 1712,-286 1712,-149 1658,-149"/>
<text text-anchor="middle" x="1685" y="-270.8" font-family="Times,serif" font-size="14.00" fill="#000000">18</text>
<polyline fill="none" stroke="#000000" points="1658,-263 1712,-263 "/>
<text text-anchor="middle" x="1685" y="-247.8" font-family="Times,serif" font-size="14.00" fill="#000000">data</text>
<text text-anchor="middle" x="1685" y="-232.8" font-family="Times,serif" font-size="14.00" fill="#000000">18</text>
<polyline fill="none" stroke="#000000" points="1658,-225 1712,-225 "/>
<text text-anchor="middle" x="1685" y="-209.8" font-family="Times,serif" font-size="14.00" fill="#000000">next</text>
<text text-anchor="middle" x="1685" y="-194.8" font-family="Times,serif" font-size="14.00" fill="#000000">19</text>
<polyline fill="none" stroke="#000000" points="1658,-187 1712,-187 "/>
<text text-anchor="middle" x="1685" y="-171.8" font-family="Times,serif" font-size="14.00" fill="#000000">prev</text>
<text text-anchor="middle" x="1685" y="-156.8" font-family="Times,serif" font-size="14.00" fill="#000000">17</text>
</g>
<!-- Node17&#45;&gt;Node18 -->
<g id="edge17" class="edge">
<title>Node17&#45;&gt;Node18</title>
<path fill="none" stroke="transparent" d="M1622.003,-217.5C1630.0277,-217.5 1638.9665,-217.5 1647.5309,-217.5"/>
<polygon fill="transparent" stroke="transparent" points="1647.7051,-221.0001 1657.705,-217.5 1647.705,-214.0001 1647.7051,-221.0001"/>
</g>
<!-- Node17&#45;&gt;Node18 -->
<g id="edge35" class="edge">
<title>Node17:f117&#45;&gt;Node18:f018</title>
<path fill="none" stroke="#ff0000" d="M1622,-205.5C1652.266,-205.5 1630.6463,-258.3281 1647.9408,-271.5352"/>
<polygon fill="#ff0000" stroke="#ff0000" points="1647.4184,-275.03 1658,-274.5 1649.3975,-268.3156 1647.4184,-275.03"/>
</g>
<!-- Node19 -->
<g id="node25" class="node">
<title>Node19</title>
<polygon fill="#98fb98" stroke="#000000" points="1748,-80 1748,-217 1802,-217 1802,-80 1748,-80"/>
<text text-anchor="middle" x="1775" y="-201.8" font-family="Times,serif" font-size="14.00" fill="#000000">19</text>
<polyline fill="none" stroke="#000000" points="1748,-194 1802,-194 "/>
<text text-anchor="middle" x="1775" y="-178.8" font-family="Times,serif" font-size="14.00" fill="#000000">data</text>
<text text-anchor="middle" x="1775" y="-163.8" font-family="Times,serif" font-size="14.00" fill="#000000">19</text>
<polyline fill="none" stroke="#000000" points="1748,-156 1802,-156 "/>
<text text-anchor="middle" x="1775" y="-140.8" font-family="Times,serif" font-size="14.00" fill="#000000">next</text>
<text text-anchor="middle" x="1775" y="-125.8" font-family="Times,serif" font-size="14.00" fill="#000000">0</text>
<polyline fill="none" stroke="#000000" points="1748,-118 1802,-118 "/>
<text text-anchor="middle" x="1775" y="-102.8" font-family="Times,serif" font-size="14.00" fill="#000000">prev</text>
<text text-anchor="middle" x="1775" y="-87.8" font-family="Times,serif" font-size="14.00" fill="#000000">18</text>
</g>
<!-- Node18&#45;&gt;Node19 -->
<g id="edge18" class="edge">
<title>Node18&#45;&gt;Node19</title>
<path fill="none" stroke="transparent" d="M1712.003,-196.7977C1720.645,-190.1722 1730.3472,-182.7338 1739.5,-175.7167"/>
<polygon fill="transparent" stroke="transparent" points="1741.8985,-178.2881 1747.705,-169.4261 1737.6394,-172.7329 1741.8985,-178.2881"/>
</g>
<!-- Node18&#45;&gt;Node19 -->
<g id="edge36" class="edge">
<title>Node18:f118&#45;&gt;Node19:f019</title>
<path fill="none" stroke="#ff0000" d="M1712,-205.5C1724,-205.5 1729.25,-205.5 1737.875,-205.5"/>
<polygon fill="#ff0000" stroke="#ff0000" points="1738,-209.0001 1748,-205.5 1738,-202.0001 1738,-209.0001"/>
</g>
<!-- Node19&#45;&gt;Node1 -->
<g id="edge37" class="edge">
<title>Node19&#45;&gt;Node1</title>
<path fill="none" stroke="transparent" d="M1747.7594,-141.5786C1712.6802,-133.287 1649.7127,-120.5 1595,-120.5 308.5,-120.5 308.5,-120.5 308.5,-120.5 236.6686,-120.5 213.8629,-110.8323 148,-139.5 126.7148,-148.7647 106.6119,-164.6324 90.659,-179.6471"/>
<polygon fill="transparent" stroke="transparent" points="87.909,-177.4389 83.1739,-186.9167 92.786,-182.4604 87.909,-177.4389"/>
</g>
</g>
</svg>
